<svg xmlns="http://www.w3.org/2000/svg" viewBox="0 0 24 24" fill="currentColor" class="w-6 h-6">
  <path fill-rule="evenodd" d="M11.25 2.25a.75.75 0 010 1.5h-.624L8.181 6.058a.75.75 0 01-1.028.086L5.73 5.22a.75.75 0 00-1.03 0L3.105 6.816a.75.75 0 000 1.03l.924.924a.75.75 0 01.086 1.028L3.272 11.82v.624a.75.75 0 01-1.5 0v-.624l-1.633-1.632a.75.75 0 010-1.03L2.72 7.733a.75.75 0 000-1.03L3.844 4.58a.75.75 0 011.03 0l.924.923a.75.75 0 001.03 0l1.423-1.423a.75.75 0 00.086-1.028L6.57 1.98h-.624a.75.75 0 010-1.5h3.75a.75.75 0 010 1.5H11.25zm.354 9.396a.75.75 0 011.048 0l7.5 7.5a.75.75 0 010 1.06l-7.5 7.5a.75.75 0 01-1.06 0l-7.5-7.5a.75.75 0 010-1.06l7.5-7.5a.75.75 0 011.06 0zm.354.854L4.5 18.706 5.294 19.5l7.5-7.5-7.5-7.5L4.5 6.354l7.5 7.5z" clip-rule="evenodd" />
</svg>
